Banned In America 6 (2012) DVDRip XviD

===================================================================================

www.imdb.com/title/

===================================================================================

General

Format                           : AVI
Format/Info                      : Audio Video Interleave
File size                        : 856 MiB
Duration                         : 47mn 14s
Overall bit rate                 : 2 533 Kbps
Movie name                       : BANNED_IN_AMERICA_6.Title1.DVDRip
Writing application              : Lavf53.21.0
Original source form/Name        : BANNED_IN_AMERICA_6
Original source                  : My Own

Video
ID                               : 0
Format                           : MPEG-4 Visual
Format profile                   : Advanced Simple@L5
Format settings, BVOP            : 2
Format settings, QPel            : No
Format settings, GMC             : No warppoints
Format settings, Matrix          : Default (H.263)
Muxing mode                      : Packed bitstream
Codec ID                         : XVID
Codec ID/Hint                    : XviD
Duration                         : 47mn 14s
Bit rate                         : 2 330 Kbps
Width                            : 720 pixels
Height                           : 540 pixels
Display aspect ratio             : 4:3
Frame rate                       : 29.970 fps
Color space                      : YUV
Chroma subsampling               : 4:2:0
Bit depth                        : 8 bits
Scan type                        : Progressive
Compression mode                 : Lossy
Bits/(Pixel*Frame)               : 0.200
Stream size                      : 787 MiB (92%)
Writing library                  : XviD 1.2.1 (UTC 2008-12-04)

Audio
ID                               : 1
Format                           : AC-3
Format/Info                      : Audio Coding 3
Mode extension                   : CM (complete main)
Codec ID                         : 2000
Duration                         : 47mn 14s
Bit rate mode                    : Constant
Bit rate                         : 192 Kbps
Channel(s)                       : 2 channels
Channel positions                : Front: L R
Sampling rate                    : 48.0 KHz
Bit depth                        : 16 bits
Compression mode                 : Lossy
Stream size                      : 64.9 MiB (8%)
Alignment                        : Aligned on interleaves
Interleave, duration             : 32 ms (0.96 video frame)


===================================================================================	

Number 6 is not as good as the other banned in america's, But that's just my opinion....

This was released in january of 2012.

Watch at your own risk, You have been warned. 	